<mxfile host="app.diagrams.net" modified="2022-12-07T07:11:28.272Z" agent="5.0 (Macintosh; Intel Mac OS X 10_15_7) AppleWebKit/537.36 (KHTML, like Gecko) Chrome/107.0.0.0 Safari/537.36" version="20.6.0" etag="OgOGk8rLQP1_-xPqpEID" type="github">
  <diagram id="ZxsPMViDNv9QSAN8l6eQ" name="第 1 页">
    <mxGraphModel dx="788" dy="491" grid="1" gridSize="10" guides="1" tooltips="1" connect="1" arrows="1" fold="1" page="1" pageScale="1" pageWidth="827" pageHeight="1169" math="0" shadow="0">
      <root>
        <mxCell id="0" />
        <mxCell id="1" parent="0" />
        <mxCell id="__BBxjQFK_DfWDHcUt-d-33" style="edgeStyle=orthogonalEdgeStyle;rounded=0;orthogonalLoop=1;jettySize=auto;html=1;dashed=1;" edge="1" parent="1" source="__BBxjQFK_DfWDHcUt-d-3">
          <mxGeometry relative="1" as="geometry">
            <mxPoint x="370" y="720" as="targetPoint" />
          </mxGeometry>
        </mxCell>
        <mxCell id="__BBxjQFK_DfWDHcUt-d-3" value="用户鼠标动作" style="shape=or;whiteSpace=wrap;html=1;" vertex="1" parent="1">
          <mxGeometry x="170" y="680" width="60" height="80" as="geometry" />
        </mxCell>
        <mxCell id="__BBxjQFK_DfWDHcUt-d-28" value="" style="edgeStyle=orthogonalEdgeStyle;rounded=0;orthogonalLoop=1;jettySize=auto;html=1;" edge="1" parent="1" source="__BBxjQFK_DfWDHcUt-d-13" target="__BBxjQFK_DfWDHcUt-d-22">
          <mxGeometry relative="1" as="geometry" />
        </mxCell>
        <mxCell id="__BBxjQFK_DfWDHcUt-d-13" value="浏览器页面" style="shape=note2;boundedLbl=1;whiteSpace=wrap;html=1;size=25;verticalAlign=top;align=center;" vertex="1" parent="1">
          <mxGeometry x="280" y="540" width="180" height="60" as="geometry" />
        </mxCell>
        <mxCell id="__BBxjQFK_DfWDHcUt-d-29" value="" style="edgeStyle=orthogonalEdgeStyle;rounded=0;orthogonalLoop=1;jettySize=auto;html=1;" edge="1" parent="1" source="__BBxjQFK_DfWDHcUt-d-22" target="__BBxjQFK_DfWDHcUt-d-26">
          <mxGeometry relative="1" as="geometry" />
        </mxCell>
        <mxCell id="__BBxjQFK_DfWDHcUt-d-22" value="高亮标示当前鼠标悬停位置网页元素" style="fontStyle=0;fontSize=12;" vertex="1" parent="1">
          <mxGeometry x="260" y="640" width="220" height="50" as="geometry" />
        </mxCell>
        <mxCell id="__BBxjQFK_DfWDHcUt-d-30" value="" style="edgeStyle=orthogonalEdgeStyle;rounded=0;orthogonalLoop=1;jettySize=auto;html=1;" edge="1" parent="1" source="__BBxjQFK_DfWDHcUt-d-26" target="__BBxjQFK_DfWDHcUt-d-27">
          <mxGeometry relative="1" as="geometry" />
        </mxCell>
        <mxCell id="__BBxjQFK_DfWDHcUt-d-26" value="生成样本元素配置信息" style="fontStyle=0;fontSize=12;" vertex="1" parent="1">
          <mxGeometry x="260" y="740" width="220" height="50" as="geometry" />
        </mxCell>
        <mxCell id="__BBxjQFK_DfWDHcUt-d-35" value="" style="edgeStyle=orthogonalEdgeStyle;rounded=0;orthogonalLoop=1;jettySize=auto;html=1;" edge="1" parent="1" source="__BBxjQFK_DfWDHcUt-d-27" target="__BBxjQFK_DfWDHcUt-d-34">
          <mxGeometry relative="1" as="geometry" />
        </mxCell>
        <mxCell id="__BBxjQFK_DfWDHcUt-d-27" value="根据样本元素配置信息采集&#xa;当前页面全部同类元素信息" style="fontStyle=0;fontSize=12;" vertex="1" parent="1">
          <mxGeometry x="260" y="830" width="220" height="50" as="geometry" />
        </mxCell>
        <mxCell id="__BBxjQFK_DfWDHcUt-d-34" value="预览展示" style="fontStyle=0;fontSize=12;" vertex="1" parent="1">
          <mxGeometry x="260" y="920" width="220" height="50" as="geometry" />
        </mxCell>
      </root>
    </mxGraphModel>
  </diagram>
</mxfile>
